<svg width="120" height="120" viewBox="0 0 120 120" fill="none" xmlns="http://www.w3.org/2000/svg">
<rect width="120" height="120" fill="black"/>
<path d="M25.0653 72.3636V48.7273H30.5312V50.5369H27.1335V70.554H30.5312V72.3636H25.0653ZM93.7839 48.7273V72.3636H88.318V70.554H91.7157V50.5369H88.318V48.7273H93.7839Z" fill="#888888"/>
<path d="M41.0222 70V51.0909H47.4114C48.8948 51.0909 50.1074 51.3587 51.0492 51.8942C51.9971 52.4235 52.6988 53.1406 53.1543 54.0455C53.6098 54.9503 53.8375 55.9598 53.8375 57.0739C53.8375 58.188 53.6098 59.2005 53.1543 60.1115C52.705 61.0225 52.0094 61.7488 51.0676 62.2905C50.1259 62.826 48.9194 63.0938 47.4483 63.0938H42.8688V61.0625H47.3745C48.3901 61.0625 49.2057 60.8871 49.8212 60.5362C50.4367 60.1854 50.883 59.7114 51.16 59.1143C51.4431 58.5111 51.5847 57.831 51.5847 57.0739C51.5847 56.3168 51.4431 55.6397 51.16 55.0426C50.883 54.4455 50.4337 53.9777 49.812 53.6392C49.1903 53.2945 48.3655 53.1222 47.3375 53.1222H43.312V70H41.0222ZM65.6142 70H63.2136L70.1568 51.0909H72.5204L79.4636 70H77.063L71.4125 54.0824H71.2647L65.6142 70ZM66.5005 62.6136H76.1767V64.6449H66.5005V62.6136Z" fill="white" fill-opacity="0.88"/>
</svg>
